<svg width="16" height="12" viewBox="0 0 16 12" fill="none" xmlns="http://www.w3.org/2000/svg">
<path fill-rule="evenodd" clip-rule="evenodd" d="M10.2679 0.207485C9.96823 -0.0785198 9.49349 -0.0674792 9.20748 0.232144C8.92148 0.531768 8.93252 1.00651 9.23214 1.29252L13.3781 5.25H0.75C0.335786 5.25 0 5.58579 0 6C0 6.41422 0.335786 6.75 0.75 6.75H13.3781L9.23214 10.7075C8.93252 10.9935 8.92148 11.4682 9.20748 11.7679C9.49349 12.0675 9.96823 12.0785 10.2679 11.7925L15.7679 6.54252C15.9161 6.401 16 6.20496 16 6C16 5.79504 15.9161 5.59901 15.7679 5.45748L10.2679 0.207485Z" fill="black"/>
</svg>
