<svg width="16" height="12" viewBox="0 0 16 12" fill="none" xmlns="http://www.w3.org/2000/svg">
<path fill-rule="evenodd" clip-rule="evenodd" d="M6.76786 1.29252C7.06748 1.00651 7.07852 0.531768 6.79252 0.232144C6.50651 -0.0674792 6.03177 -0.0785198 5.73214 0.207485L0.232143 5.45748C0.0838826 5.59901 0 5.79504 0 6C0 6.20496 0.0838826 6.401 0.232143 6.54252L5.73214 11.7925C6.03177 12.0785 6.50651 12.0675 6.79252 11.7679C7.07852 11.4682 7.06748 10.9935 6.76786 10.7075L2.62192 6.75H15.25C15.6642 6.75 16 6.41422 16 6C16 5.58579 15.6642 5.25 15.25 5.25H2.62192L6.76786 1.29252Z" fill="black"/>
</svg>
