<svg width="16" height="17" viewBox="0 0 16 17" fill="none" xmlns="http://www.w3.org/2000/svg">
<path fill-rule="evenodd" clip-rule="evenodd" d="M0 2.75C0 1.23122 1.23122 0 2.75 0H6.8127C7.81902 0 8.74511 0.549654 9.22695 1.43322L10.0816 3H13.25C14.7688 3 16 4.23122 16 5.75V7.25C16 7.66421 15.6642 8 15.25 8C14.8358 8 14.5 7.66421 14.5 7.25V5.75C14.5 5.05964 13.9404 4.5 13.25 4.5H1.5V7V13.25C1.5 13.9404 2.05964 14.5 2.75 14.5H7.25C7.66421 14.5 8 14.8358 8 15.25C8 15.6642 7.66421 16 7.25 16H2.75C1.23122 16 0 14.7688 0 13.25V7V3.75V2.75ZM7.91008 2.15145L8.37294 3H1.5V2.75C1.5 2.05964 2.05964 1.5 2.75 1.5H6.8127C7.27018 1.5 7.69109 1.74989 7.91005 2.15138L7.91008 2.15145ZM15.8023 12.2473C16.0493 11.9148 15.98 11.445 15.6475 11.198C15.315 10.951 14.8452 11.0203 14.5982 11.3528L12.4862 14.1955L11.2984 13.1395C10.9888 12.8643 10.5147 12.8922 10.2395 13.2017C9.96432 13.5113 9.99217 13.9854 10.3017 14.2606L12.1015 15.8606C12.2587 16.0004 12.4674 16.0677 12.6766 16.0462C12.8859 16.0246 13.0764 15.9162 13.2019 15.7474L15.8023 12.2473Z" fill="white"/>
</svg>
