<svg width="32" height="32" viewBox="0 0 32 32" fill="none" xmlns="http://www.w3.org/2000/svg">
<rect width="32" height="32" rx="16" fill="black"/>
<path d="M23.8415 12.541C23.8415 12.716 23.8415 12.891 23.8415 13.041C23.8415 18.216 19.8915 24.191 12.6915 24.191C10.4665 24.191 8.4165 23.541 6.6665 22.441C6.9665 22.466 7.2915 22.491 7.5915 22.491C9.4165 22.491 11.1165 21.866 12.4665 20.816C10.7415 20.791 9.2915 19.641 8.8165 18.091C9.0665 18.141 9.2915 18.166 9.5665 18.166C9.9165 18.166 10.2665 18.116 10.5915 18.016C8.7915 17.666 7.4415 16.091 7.4415 14.191C7.4415 14.166 7.4415 14.166 7.4415 14.141C7.9665 14.441 8.5665 14.616 9.2165 14.641C8.1665 13.941 7.4665 12.741 7.4665 11.366C7.4665 10.641 7.6665 9.96602 7.9915 9.39102C9.9165 11.766 12.8165 13.316 16.0665 13.491C15.9915 13.216 15.9665 12.891 15.9665 12.591C15.9665 10.416 17.7165 8.66602 19.8915 8.66602C21.0165 8.66602 22.0415 9.14102 22.7415 9.89102C23.6415 9.71602 24.4665 9.39102 25.2415 8.94102C24.9415 9.86602 24.3165 10.616 23.5165 11.116C24.3165 11.016 25.0665 10.816 25.7665 10.491C25.2665 11.291 24.6165 11.991 23.8415 12.541Z" fill="white"/>
</svg>
